<?xml version="1.0"?>
<svg version="1.1" xmlns="http://www.w3.org/2000/svg" width="377" height="64" style=""><path fill="#ebd80e" d="M25.58,38.67l10.58,0l0,3.68l-10.58,0l0,10.81l4.6,0.92l0,2.76l-13.34,0l0-2.76l3.91-0.92l0-24.84l-3.91-0.92l0-2.53l8.74-0.23l14.03,0l0,7.59l-2.99,0l-1.15-3.91l-9.89,0l0,10.35z M62.0856,24.18c8.97,0,14.26,6.21,14.26,16.1c0,10.12-6.21,17.02-15.18,17.02s-14.03-5.75-14.03-16.33c0-10.12,5.75-16.79,14.95-16.79z M61.8556,28.09c-5.98,0-9.43,3.91-9.43,12.65c0,8.28,2.99,12.65,8.97,12.65s9.66-4.14,9.66-12.88c0-8.28-3.22-12.42-9.2-12.42z M99.9712,24.18c8.97,0,14.26,6.21,14.26,16.1c0,10.12-6.21,17.02-15.18,17.02s-14.03-5.75-14.03-16.33c0-10.12,5.75-16.79,14.95-16.79z M99.7412,28.09c-5.98,0-9.43,3.91-9.43,12.65c0,8.28,2.99,12.65,8.97,12.65s9.66-4.14,9.66-12.88c0-8.28-3.22-12.42-9.2-12.42z M126.1268,53.16l0-24.84l-3.91-0.92l0-2.53l8.74-0.23l5.75,0c8.97,0,14.49,5.52,14.49,15.64s-5.98,16.56-15.18,16.56l-13.8,0l0-2.76z M130.9568,53.16l5.29,0c5.75,0,9.66-3.91,9.66-12.65c0-8.51-3.68-12.19-9.43-12.19l-5.52,0l0,24.84z M176.598,56.84l0-2.76l4.6-0.92l0-24.84l-5.98,0l-1.15,4.6l-2.99,0l0-8.28l25.07,0l0,8.28l-2.99,0l-1.15-4.6l-5.98,0l0,24.84l4.6,0.92l0,2.76l-14.03,0z M205.5136,53.16l0-24.84l-3.91-0.92l0-2.53l8.74-0.23l5.06,0c6.486,0,10.35,3.128,10.35,8.28c0,4.462-2.024,7.498-5.98,8.97c0.736,0.644,1.564,1.84,2.76,4.14l3.634,7.314l3.266,0.736l0,2.76l-6.9,0l-3.91-8.51c-2.162-4.6-3.174-5.52-6.21-5.52l-2.07,0l0,10.35l3.91,0.92l0,2.76l-12.65,0l0-2.76z M210.3436,39.36l3.45,0c4.508,0,7.13-2.116,7.13-5.75c0-3.082-2.392-5.29-5.75-5.29l-4.83,0l0,11.04z M263.4092,28.32l0,15.41c0,8.51-2.99,13.57-12.65,13.57c-8.97,0-12.19-4.37-12.19-12.88l0-16.1l-3.91-0.92l0-2.53l13.11-0.23l0,2.76l-4.37,0.92l0,16.1c0,6.9,2.3,8.97,7.59,8.97c5.75,0,7.59-2.53,7.59-9.66l0-15.41l-4.37-0.92l0-2.53l13.11-0.23l0,2.76z M297.1548,34.3l-1.242-5.29s-2.438-0.92-5.888-0.92c-6.21,0-9.66,4.6-9.66,13.11c0,8.28,4.14,11.96,9.89,11.96c4.83,0,9.2-3.68,9.2-3.68l1.84,2.99s-4.6,4.83-11.5,4.83c-9.2,0-14.72-5.52-14.72-15.87c0-10.58,5.98-17.25,15.41-17.25c5.06,0,10.35,2.3,10.35,2.3l-0.23,7.82l-3.45,0z M308.1304,56.84l0-2.76l3.91-0.92l0-24.84l-3.91-0.92l0-2.53l13.11-0.23l0,2.76l-4.37,0.92l0,10.12l4.232,0l7.958-13.57l7.59-0.23l0,2.76l-4.554,0.92l-6.992,11.638l9.476,13.202l3.91,0.92l0,2.76l-13.11,0l0-2.76l3.91-0.92l-7.912-11.04l-4.508,0l0,11.04l4.37,0.92l0,2.76l-13.11,0z"/><path fill="#569ed1" d=""/></svg>
